<svg 
 xmlns="http://www.w3.org/2000/svg"
 xmlns:xlink="http://www.w3.org/1999/xlink"
 width="0.847cm" height="1.058cm">
<path fill-rule="evenodd"  fill="rgb(18, 117, 185)"
 d="M18.266,29.975 L5.735,29.975 C3.104,29.975 0.964,27.751 0.964,25.017 L0.964,4.944 C0.964,2.210 3.104,-0.014 5.735,-0.014 L18.266,-0.014 C20.897,-0.014 23.038,2.210 23.038,4.944 L23.038,25.017 C23.038,27.751 20.897,29.975 18.266,29.975 ZM21.103,4.944 C21.103,3.318 19.831,1.996 18.266,1.996 L5.735,1.996 C4.171,1.996 2.899,3.318 2.899,4.944 L2.899,25.017 C2.899,26.643 4.171,27.965 5.735,27.965 L18.266,27.965 C19.831,27.965 21.103,26.643 21.103,25.017 L21.103,4.944 ZM12.969,5.431 L11.034,5.431 C10.500,5.431 10.066,4.981 10.066,4.426 C10.066,3.870 10.500,3.420 11.034,3.420 L12.969,3.420 C13.503,3.420 13.936,3.870 13.936,4.426 C13.936,4.981 13.503,5.431 12.969,5.431 ZM12.001,24.808 C12.534,24.808 12.969,25.258 12.969,25.813 C12.969,26.368 12.534,26.818 12.001,26.818 C11.468,26.818 11.034,26.368 11.034,25.813 C11.034,25.258 11.468,24.808 12.001,24.808 Z"/>
</svg><svg 
 xmlns="http://www.w3.org/2000/svg"
 xmlns:xlink="http://www.w3.org/1999/xlink"
 width="2.328cm" height="2.328cm">
<path fill-rule="evenodd"  fill="rgb(27, 27, 27)"
 d="M64.317,48.833 L63.747,49.047 C63.067,49.483 62.231,49.086 61.825,48.388 L58.822,42.812 C56.990,55.609 46.008,65.191 32.999,65.191 C19.983,65.191 9.011,55.607 7.182,42.804 L4.175,48.388 C3.769,49.086 2.933,49.483 2.253,49.047 L1.682,48.833 C1.002,48.395 0.780,47.476 1.186,46.777 L6.328,37.321 C6.335,37.309 6.334,37.295 6.341,37.283 L6.709,36.650 C6.913,36.300 7.236,36.073 7.595,35.988 C7.952,35.900 8.345,35.954 8.683,36.173 L9.299,36.569 C9.311,36.576 9.317,36.587 9.330,36.596 L18.429,42.741 C19.109,43.177 19.331,44.096 18.926,44.796 L18.516,45.247 C18.110,45.946 17.187,45.974 16.507,45.537 L11.072,41.842 C12.364,52.216 20.737,60.174 30.999,61.098 L30.999,21.000 L23.000,21.000 C21.895,21.000 21.000,20.104 21.000,19.000 C21.000,17.895 21.895,17.000 23.000,17.000 L31.107,17.000 C31.124,16.945 31.120,16.883 31.140,16.830 C27.601,15.978 24.969,12.800 24.969,9.000 C24.969,4.547 28.578,0.937 33.032,0.937 C37.485,0.937 41.094,4.547 41.094,9.000 C41.094,12.822 38.432,16.015 34.862,16.846 C34.881,16.894 34.877,16.950 34.892,17.000 L43.000,17.000 C44.104,17.000 45.000,17.895 45.000,19.000 C45.000,20.104 44.104,21.000 43.000,21.000 L34.999,21.000 L34.999,61.098 C45.263,60.174 53.646,52.212 54.934,41.837 L49.493,45.537 C48.813,45.974 47.889,45.946 47.484,45.247 L47.074,44.796 C46.669,44.096 46.891,43.177 47.571,42.741 L56.670,36.596 C56.683,36.587 56.689,36.576 56.701,36.569 L57.317,36.173 C57.655,35.954 58.048,35.900 58.404,35.988 C58.764,36.073 59.087,36.300 59.291,36.650 L59.659,37.283 C59.666,37.295 59.664,37.309 59.672,37.321 L64.814,46.777 C65.220,47.476 64.998,48.395 64.317,48.833 ZM37.094,9.000 C37.094,6.759 35.272,4.937 33.032,4.937 C30.791,4.937 28.969,6.759 28.969,9.000 C28.969,11.240 30.791,13.062 33.032,13.062 C35.272,13.062 37.094,11.240 37.094,9.000 Z"/>
</svg>

<svg 
 xmlns="http://www.w3.org/2000/svg"
 xmlns:xlink="http://www.w3.org/1999/xlink"
 width="28px" height="24px">
<path fill-rule="evenodd"  fill="rgb(255, 255, 255)"
 d="M24.693,22.771 C24.504,23.019 24.211,23.164 23.900,23.164 L3.804,23.164 C3.494,23.164 3.201,23.019 3.012,22.771 C1.311,20.548 0.335,17.565 0.335,14.586 C0.335,7.038 6.399,0.897 13.852,0.897 C21.306,0.897 27.369,7.026 27.369,14.561 C27.369,17.556 26.394,20.549 24.693,22.771 ZM13.852,2.914 C7.503,2.914 2.338,8.150 2.338,14.586 C2.338,16.956 3.053,19.317 4.313,21.147 L23.393,21.147 C24.652,19.317 25.367,16.946 25.367,14.561 C25.367,8.139 20.201,2.914 13.852,2.914 ZM21.789,14.773 C21.236,14.773 20.788,14.322 20.788,13.765 C20.788,9.883 17.677,6.725 13.852,6.725 C10.028,6.725 6.917,9.896 6.917,13.793 C6.917,14.350 6.468,14.801 5.916,14.801 C5.363,14.801 4.914,14.350 4.914,13.793 C4.914,8.783 8.924,4.708 13.852,4.708 C18.780,4.708 22.791,8.771 22.791,13.765 C22.791,14.322 22.343,14.773 21.789,14.773 ZM17.703,10.654 C17.703,10.654 16.722,16.356 15.675,17.594 C14.628,18.833 12.783,18.981 11.554,17.927 C10.324,16.872 10.176,15.014 11.223,13.776 C12.270,12.538 17.703,10.654 17.703,10.654 Z"/>
</svg>